# xmcd
#
# Track frame offsets: 
#        183
#        20783
#        42708
#        57945
#        79795
#        100333
#        116708
#        130995
#        155158
#        185558
#
# Disc length: 2846 seconds
#
# Revision: 3
# Processed by: cddbd v1.5.2PL0 Copyright (c) Steve Scherf et al.
# Submitted via: ExactAudioCopy v0.95b4
#
DISCID=920b1c0a
DTITLE=Matt "Guitar" Murphy - Way Down South
DYEAR=1990
DGENRE=Blues
TTITLE0=Way Down South
TTITLE1=Big Six
TTITLE2=Gonna Be Some Changes Made
TTITLE3=Big City Takedown
TTITLE4=Buck's Boogie
TTITLE5=Thump Tyme
TTITLE6=Matt's Guitar Boogie #2
TTITLE7=Low Down and Dirty
TTITLE8=Gimme Somma Dat
TTITLE9=Blue Walls
EXTD=
EXTT0=
EXTT1=
EXTT2=
EXTT3=
EXTT4=
EXTT5=
EXTT6=
EXTT7=
EXTT8=
EXTT9=
PLAYORDER=
